<?xml version="1.0" standalone="no"?>
<!DOCTYPE svg PUBLIC "-//W3C//DTD SVG 20010904//EN"
 "http://www.w3.org/TR/2001/REC-SVG-20010904/DTD/svg10.dtd">
<svg version="1.0" xmlns="http://www.w3.org/2000/svg"
 width="898.000000pt" height="841.000000pt" viewBox="0 0 898.000000 841.000000"
 preserveAspectRatio="xMidYMid meet">
<metadata>
Created by potrace 1.16, written by Peter Selinger 2001-2019
</metadata>
<g transform="translate(0.000000,841.000000) scale(0.100000,-0.100000)"
fill="#000000" stroke="none">
<path d="M5030 7209 c-203 -11 -403 -35 -645 -78 -229 -40 -646 -151 -880
-234 -195 -69 -250 -90 -259 -98 -6 -5 -16 -9 -23 -9 -7 0 -35 -9 -61 -21 -26
-12 -56 -25 -67 -30 -433 -184 -921 -461 -1220 -691 -18 -14 -131 -102 -171
-133 -200 -156 -556 -504 -700 -684 -10 -13 -30 -38 -44 -55 -97 -118 -264
-361 -345 -501 -79 -137 -172 -335 -225 -480 -12 -33 -26 -69 -30 -80 -29 -68
-92 -306 -109 -415 -7 -41 -17 -99 -22 -128 -15 -75 -15 -503 0 -588 37 -211
45 -243 87 -371 75 -227 177 -414 353 -648 68 -90 287 -304 387 -379 49 -36
94 -69 99 -74 13 -11 172 -112 210 -134 64 -38 353 -176 410 -198 33 -12 69
-26 80 -30 11 -4 36 -13 55 -20 19 -7 44 -16 55 -20 67 -27 357 -106 445 -121
30 -5 78 -14 105 -19 51 -10 140 -23 275 -40 188 -24 557 -34 812 -22 139 7
287 16 328 21 113 14 229 30 290 40 30 5 84 14 120 20 108 17 454 96 530 120
14 5 59 19 100 31 259 79 562 190 725 265 233 107 312 146 463 227 170 91 475
278 582 358 19 15 78 58 131 97 349 258 738 642 975 963 91 124 214 304 214
314 0 2 19 35 42 72 23 38 75 139 115 224 41 85 79 163 84 172 5 10 9 22 9 28
0 6 8 29 19 53 19 42 34 87 78 232 22 75 32 114 54 225 61 303 56 719 -12 980
-82 316 -215 583 -414 830 -126 156 -354 355 -567 493 -171 111 -501 269 -693
332 -217 71 -370 109 -617 155 -282 51 -730 71 -1128 49z m1464 -665 c20 -19
20 -54 1 -152 -24 -122 -45 -234 -64 -344 -6 -29 -15 -79 -20 -110 -6 -32 -16
-84 -21 -115 -6 -32 -15 -78 -20 -103 -4 -25 -13 -72 -19 -105 -16 -89 -60
-323 -71 -375 -4 -25 -14 -74 -20 -110 -6 -36 -15 -85 -20 -110 -5 -25 -14
-74 -20 -110 -15 -87 -37 -205 -60 -325 -20 -104 -28 -148 -45 -240 -9 -49
-23 -122 -31 -162 -14 -72 -18 -132 -7 -103 3 8 10 19 15 25 9 10 104 172 225
380 35 61 68 117 73 125 43 69 90 152 90 160 0 6 5 10 10 10 6 0 10 4 10 9 0
22 164 283 188 299 16 10 57 20 107 24 44 3 132 12 195 18 174 19 214 18 218
-2 2 -10 -3 -30 -11 -45 -12 -24 -209 -351 -337 -558 -23 -38 -50 -83 -60
-100 -10 -16 -48 -79 -85 -140 -37 -60 -76 -126 -87 -145 -11 -19 -29 -47 -39
-62 -11 -14 -19 -40 -19 -57 0 -27 4 -41 31 -106 4 -11 22 -63 39 -115 40
-121 119 -349 130 -375 5 -11 18 -49 30 -85 12 -36 25 -74 29 -85 24 -58 81
-244 81 -262 0 -32 -42 -44 -295 -83 -38 -6 -89 -15 -113 -20 -59 -14 -98 -12
-111 4 -6 7 -20 37 -30 67 -11 30 -38 106 -61 169 -23 63 -50 140 -60 170 -10
30 -25 73 -33 95 -9 22 -37 101 -62 175 -25 74 -55 160 -66 190 -12 30 -26 67
-31 83 -13 34 -28 35 -28 2 0 -14 -4 -44 -10 -67 -5 -24 -14 -70 -20 -103 -11
-58 -21 -114 -41 -220 -5 -27 -14 -72 -20 -100 -5 -27 -25 -131 -44 -230 -19
-99 -40 -205 -46 -235 -19 -100 -23 -105 -92 -118 -108 -21 -431 -72 -454 -72
-29 0 -37 29 -23 93 13 66 77 411 100 542 10 58 28 160 40 225 5 25 14 74 20
110 6 36 15 85 20 110 5 25 13 72 18 105 6 33 22 121 37 195 38 195 46 239 56
295 4 28 13 76 19 108 5 31 15 83 20 115 6 31 15 80 20 107 6 28 14 77 20 110
14 85 26 151 39 218 6 31 15 81 21 110 5 28 16 90 25 137 9 47 20 108 25 135
4 28 10 61 13 75 6 27 19 98 36 193 6 31 16 83 22 115 5 31 14 81 20 110 5 28
13 76 19 105 5 28 14 81 20 117 7 36 16 85 21 110 5 25 16 81 24 125 21 104
32 130 58 143 26 11 170 31 243 33 27 1 63 5 79 9 58 15 172 11 189 -6z
m-3130 -480 c20 -19 23 -36 31 -144 6 -85 11 -149 40 -510 22 -266 34 -420 45
-580 6 -74 15 -193 20 -265 6 -71 15 -191 20 -265 11 -159 26 -354 40 -537 5
-73 14 -190 19 -260 19 -249 30 -390 47 -593 10 -113 18 -257 18 -320 l1 -115
-30 -14 c-16 -8 -52 -18 -80 -22 -27 -4 -79 -12 -115 -18 -36 -6 -99 -16 -140
-22 -41 -7 -102 -13 -135 -13 l-60 -1 -6 296 c-3 163 -9 301 -13 307 -3 6 -23
9 -44 6 -48 -6 -163 -23 -232 -34 -103 -17 -245 -40 -315 -50 -153 -24 -173
-31 -188 -64 -37 -79 -67 -147 -67 -151 0 -2 -11 -28 -24 -57 -13 -29 -36 -82
-51 -118 -26 -63 -41 -96 -90 -205 -12 -27 -25 -60 -29 -72 -15 -46 -31 -51
-336 -93 -36 -5 -121 -18 -189 -29 -128 -20 -171 -17 -171 14 0 8 179 376 398
818 495 996 472 949 482 967 5 8 121 242 258 520 616 1246 793 1596 818 1618
30 26 56 28 78 6z m1738 -1145 c46 -12 87 -26 92 -30 6 -5 17 -9 26 -9 9 0 22
-11 29 -24 11 -20 8 -37 -19 -122 -18 -54 -36 -108 -40 -119 -4 -11 -17 -44
-29 -74 -12 -29 -21 -59 -21 -65 0 -7 -6 -20 -13 -30 -11 -15 -17 -16 -35 -7
-11 6 -26 17 -34 24 -22 22 -132 74 -184 87 -42 11 -58 10 -106 -4 -77 -22
-128 -75 -155 -159 -39 -122 -3 -196 175 -362 224 -208 275 -267 325 -367 72
-148 97 -273 78 -395 -32 -208 -99 -348 -230 -480 -80 -81 -139 -123 -246
-176 -22 -11 -47 -23 -56 -28 -9 -4 -45 -13 -80 -19 -35 -6 -77 -16 -94 -21
-49 -16 -331 -23 -414 -10 -111 17 -228 59 -252 90 -18 22 -20 35 -15 78 3 29
10 63 15 75 8 20 39 124 70 233 36 128 43 135 83 87 34 -43 86 -77 153 -102
48 -18 82 -22 165 -23 93 0 111 3 160 26 56 26 106 71 131 117 9 16 13 57 13
111 -1 76 -5 93 -33 150 -47 92 -92 148 -238 294 -218 218 -272 328 -273 552
0 215 73 390 219 526 112 104 278 174 476 201 75 11 276 -3 357 -25z"/>
<path d="M3040 4611 c0 -5 -25 -67 -56 -138 -31 -70 -62 -143 -70 -160 -8 -18
-20 -48 -28 -65 -26 -59 -147 -333 -155 -353 -5 -11 -16 -36 -24 -55 -8 -19
-24 -55 -35 -80 -11 -25 -41 -94 -67 -155 -26 -60 -53 -123 -61 -139 -23 -47
-19 -66 14 -61 15 2 59 8 97 14 39 6 86 13 105 16 19 3 67 10 105 16 39 6 98
14 132 17 34 4 65 10 69 14 8 8 6 1024 -3 1091 -3 26 -9 47 -14 47 -5 0 -9 -4
-9 -9z"/>
</g>
</svg>
